name processed_emg.mot						
datacolumns 7						
datarows 65						
range 9.09 9.73						
endheader						
time	RGLTMED	    RRF	        RADDLONG	 RST	    RTA	        RGM
9.09	0.010691146	0.021935031	0.014826261	0.00845147	0.008187543	0.017547248
9.1	0.010620576	0.021874474	0.014784971	0.008428964	0.008203539	0.017598922
9.11	0.010549103	0.0218137	0.014743005	0.008406431	0.008219667	0.017651185
9.12	0.01047677	0.021752736	0.014700401	0.008383889	0.008235913	0.017703955
9.13	0.01040362	0.021691609	0.014657197	0.008361358	0.008252262	0.017757154
9.14	0.010329698	0.021630348	0.014613435	0.008338854	0.008268701	0.017810705
9.15	0.010255049	0.021568983	0.014569154	0.008316397	0.008285217	0.017864533
9.16	0.01017972	0.021507543	0.014524394	0.008294001	0.008301795	0.017918564
9.17	0.010103757	0.021446059	0.014479199	0.008271685	0.008318422	0.017972728
9.18	0.010027208	0.021384562	0.014433608	0.008249463	0.008335085	0.018026955
9.19	0.009950123	0.021323084	0.014387665	0.00822735	0.00835177	0.018081179
9.2	0.009872552	0.021261658	0.014341412	0.00820536	0.008368466	0.018135334
9.21	0.009794544	0.021200317	0.014294892	0.008183509	0.00838516	0.018189358
9.22	0.009716153	0.021139094	0.014248147	0.008161808	0.008401839	0.018243191
9.23	0.009637428	0.021078025	0.014201222	0.008140271	0.008418491	0.018296774
9.24	0.009558425	0.021017143	0.01415416	0.00811891	0.008435105	0.018350051
9.25	0.009479195	0.020956485	0.014107003	0.008097736	0.00845167	0.018402968
9.26	0.009399793	0.020896085	0.014059796	0.008076761	0.008468174	0.018455474
9.27	0.009320274	0.02083598	0.014012583	0.008055995	0.008484606	0.018507519
9.28	0.009240693	0.020776205	0.013965407	0.008035448	0.008500957	0.018559057
9.29	0.009161105	0.020716798	0.01391831	0.00801513	0.008517215	0.018610041
9.3	0.009081567	0.020657795	0.013871338	0.007995049	0.008533373	0.01866043
9.31	0.009002135	0.020599232	0.013824531	0.007975214	0.008549419	0.018710183
9.32	0.008922866	0.020541145	0.013777934	0.007955633	0.008565347	0.018759262
9.33	0.008843817	0.020483572	0.013731587	0.007936312	0.008581146	0.018807631
9.34	0.008765044	0.020426548	0.013685533	0.00791726	0.008596809	0.018855255
9.35	0.008686606	0.020370109	0.013639813	0.007898482	0.008612329	0.018902103
9.36	0.008608559	0.020314291	0.013594468	0.007879984	0.008627698	0.018948144
9.37	0.008530962	0.020259128	0.013549537	0.007861771	0.008642909	0.018993352
9.38	0.008453872	0.020204654	0.013505059	0.007843848	0.008657956	0.0190377
9.39	0.008377345	0.020150903	0.013461072	0.007826219	0.008672832	0.019081164
9.4	0.00830144	0.020097909	0.013417615	0.007808889	0.008687533	0.019123722
9.41	0.008226213	0.020045702	0.013374722	0.007791859	0.008702054	0.019165355
9.42	0.008151721	0.019994314	0.013332431	0.007775133	0.008716388	0.019206043
9.43	0.008078021	0.019943775	0.013290773	0.007758714	0.008730533	0.01924577
9.44	0.008005168	0.019894113	0.013249784	0.007742602	0.008744484	0.019284522
9.45	0.007933219	0.019845356	0.013209493	0.007726799	0.008758237	0.019322286
9.46	0.007862228	0.01979753	0.013169932	0.007711305	0.00877179	0.019359048
9.47	0.00779225	0.019750661	0.013131129	0.007696121	0.00878514	0.019394801
9.48	0.007723338	0.01970477	0.013093113	0.007681246	0.008798284	0.019429534
9.49	0.007655547	0.019659881	0.013055907	0.00766668	0.008811221	0.019463242
9.5	0.007588929	0.019616013	0.013019538	0.007652421	0.008823948	0.019495919
9.51	0.007523534	0.019573184	0.012984027	0.007638466	0.008836465	0.01952756
9.52	0.007459415	0.019531412	0.012949396	0.007624814	0.00884877	0.019558163
9.53	0.00739662	0.019490711	0.012915664	0.007611462	0.008860864	0.019587725
9.54	0.007335199	0.019451095	0.012882848	0.007598406	0.008872745	0.019616248
9.55	0.0072752	0.019412574	0.012850964	0.007585643	0.008884414	0.019643731
9.56	0.007216668	0.019375158	0.012820025	0.007573168	0.008895871	0.019670176
9.57	0.00715965	0.019338855	0.012790043	0.007560976	0.008907117	0.019695587
9.58	0.007104189	0.019303669	0.012761029	0.007549062	0.008918153	0.019719968
9.59	0.007050328	0.019269603	0.01273299	0.00753742	0.008928979	0.019743324
9.6	0.00699811	0.01923666	0.012705932	0.007526044	0.008939598	0.01976566
9.61	0.006947573	0.019204837	0.01267986	0.007514927	0.00895001	0.019786985
9.62	0.006898757	0.019174133	0.012654774	0.007504062	0.008960218	0.019807307
9.63	0.006851698	0.019144542	0.012630676	0.007493443	0.008970224	0.019826633
9.64	0.006806432	0.019116057	0.012607564	0.00748306	0.00898003	0.019844975
9.65	0.006762992	0.019088669	0.012585433	0.007472907	0.008989637	0.019862342
9.66	0.006721412	0.019062367	0.012564277	0.007462973	0.008999049	0.019878746
9.67	0.00668172	0.019037138	0.01254409	0.007453251	0.009008268	0.019894199
9.68	0.006643945	0.019012966	0.012524861	0.007443732	0.009017297	0.019908713
9.69	0.006608114	0.018989836	0.012506578	0.007434405	0.009026137	0.019922304
9.7	0.006574252	0.018967727	0.012489229	0.007425262	0.009034793	0.019934984
9.71	0.006542381	0.018946619	0.012472798	0.007416291	0.009043266	0.019946769
9.72	0.006512522	0.018926489	0.012457268	0.007407484	0.00905156	0.019957674
9.73	0.006484694	0.018907312	0.012442621	0.00739883	0.009059676	0.019967715
